<svg width="40" height="40" viewBox="0 0 24 24" xmlns="http://www.w3.org/2000/svg"><g clip-path="url(#clip0_6406_53282)"><path d="M12.125 23.625C18.5453 23.625 23.75 18.4203 23.75 12C23.75 5.57968 18.5453 0.375 12.125 0.375C5.70468 0.375 0.5 5.57968 0.5 12C0.5 18.4203 5.70468 23.625 12.125 23.625Z" fill="#1B53E4"></path><path fill-rule="evenodd" clip-rule="evenodd" d="M3.40625 12.125C3.40625 16.9402 7.30976 20.8438 12.125 20.8438C16.9402 20.8438 20.8438 16.9402 20.8438 12.125C20.8438 7.30976 16.9402 3.40625 12.125 3.40625C7.30976 3.40625 3.40625 7.30976 3.40625 12.125ZM10.5614 9.3159C10.2311 9.3159 9.91429 9.44713 9.68071 9.68071C9.44713 9.91429 9.3159 10.2311 9.3159 10.5614V13.689C9.3159 14.0193 9.44713 14.3361 9.68071 14.5697C9.91429 14.8033 10.2311 14.9345 10.5614 14.9345H13.689C14.0193 14.9345 14.3361 14.8033 14.5697 14.5697C14.8033 14.3361 14.9345 14.0193 14.9345 13.689V10.5614C14.9345 10.2311 14.8033 9.91429 14.5697 9.68071C14.3361 9.44713 14.0193 9.3159 13.689 9.3159H10.5614Z" fill="white"></path></g><defs><clipPath id="clip0_6406_53282"><rect width="23.25" height="23.25" fill="white" transform="translate(0.5 0.5)"></rect></clipPath></defs></svg>