<svg width="40" height="40" viewBox="0 0 24 24" xmlns="http://www.w3.org/2000/svg"><g clip-path="url(#clip0_6406_36432)"><mask id="mask0_6406_36432" maskUnits="userSpaceOnUse" x="0" y="0" width="24" height="25" style="mask-type: luminance;"><path d="M24 0.0117188H0.0234375V24.2407H24V0.0117188Z" fill="white"></path></mask><g mask="url(#mask0_6406_36432)"><path d="M20.1841 20.6198L16.1359 19.4017L13.083 21.2458L10.953 21.2449L7.89835 19.4017L3.85195 20.6198L2.62109 16.4209L3.85195 11.7607L2.62109 7.82068L3.85195 2.9375L10.1748 6.75484H13.8612L20.1841 2.9375L21.4149 7.82068L20.1841 11.7607L21.4149 16.4209L20.1841 20.6198Z" fill="#FF5C16"></path><path d="M3.85156 2.9375L10.1744 6.75751L9.92295 9.37914L3.85156 2.9375Z" fill="#FF5C16"></path><path d="M7.89844 16.4258L10.6804 18.5673L7.89844 19.4048V16.4258Z" fill="#FF5C16"></path><path d="M10.4591 12.884L9.92437 9.38281L6.50178 11.7635L6.5 11.7626V11.7644L6.51058 14.2149L7.89851 12.884H7.8994H10.4591Z" fill="#FF5C16"></path><path d="M20.1822 2.9375L13.8594 6.75751L14.11 9.37914L20.1822 2.9375Z" fill="#FF5C16"></path><path d="M16.1375 16.4258L13.3555 18.5673L16.1375 19.4048V16.4258Z" fill="#FF5C16"></path><path d="M17.5363 11.7644V11.7626L17.5354 11.7635L14.1128 9.38281L13.5781 12.884H16.1378L17.5266 14.2149L17.5363 11.7644Z" fill="#FF5C16"></path><path d="M7.89836 19.4009L3.85195 20.619L2.62109 16.4219H7.89836V19.4009Z" fill="#E34807"></path><path d="M10.4572 12.8828L11.2301 17.9442L10.1589 15.13L6.50781 14.2147L7.89663 12.8828H10.4563H10.4572Z" fill="#E34807"></path><path d="M16.1367 19.4009L20.1831 20.619L21.414 16.4219H16.1367V19.4009Z" fill="#E34807"></path><path d="M13.5776 12.8828L12.8047 17.9442L13.8759 15.13L17.527 14.2147L16.1373 12.8828H13.5776Z" fill="#E34807"></path><path d="M2.62109 16.4219L3.85195 11.7617H6.49898L6.50867 14.2132L10.1598 15.1285L11.231 17.9427L10.6804 18.5625L7.89838 16.421H2.62109V16.4219Z" fill="#FF8D5D"></path><path d="M21.4146 16.4219L20.1837 11.7617H17.5367L17.527 14.2132L13.8759 15.1285L12.8047 17.9427L13.3553 18.5625L16.1373 16.421H21.4146V16.4219Z" fill="#FF8D5D"></path><path d="M13.8608 6.75781H12.0176H10.1744L9.92383 9.37944L11.2306 17.942H12.8047L14.1123 9.37944L13.8608 6.75781Z" fill="#FF8D5D"></path><path d="M3.85195 2.9375L2.62109 7.82068L3.85195 11.7607H6.49898L9.92335 9.37914L3.85195 2.9375Z" fill="#661800"></path><path d="M9.69187 13.8993H8.49276L7.83984 14.546L10.1595 15.1273L9.69187 13.8984V13.8993Z" fill="#661800"></path><path d="M20.1847 2.9375L21.4155 7.82068L20.1847 11.7607H17.5376L14.1133 9.37914L20.1847 2.9375Z" fill="#661800"></path><path d="M14.3435 13.8993H15.5444L16.1973 14.5469L13.875 15.1291L14.3435 13.8984V13.8993Z" fill="#661800"></path><path d="M13.0804 19.5772L13.3539 18.5651L12.8033 17.9453H11.2283L10.6777 18.5651L10.9513 19.5772" fill="#661800"></path><path d="M13.0822 19.5781V21.2495H10.9531V19.5781H13.0822Z" fill="#C0C4CD"></path><path d="M7.89844 19.3999L10.954 21.2459V19.5746L10.6804 18.5625L7.89844 19.3999Z" fill="#E7EBF6"></path><path d="M16.1376 19.3999L13.082 21.2459V19.5746L13.3556 18.5625L16.1376 19.3999Z" fill="#E7EBF6"></path></g></g><defs><clipPath id="clip0_6406_36432"><rect width="24" height="24.2526" fill="white"></rect></clipPath></defs></svg>