<svg class="text-textSecondary" fill="none" width="40" height="40" viewBox="0 0 24 24" xmlns="http://www.w3.org/2000/svg"><path fill-rule="evenodd" clip-rule="evenodd" d="M6.75 3C3.8505 3 1.5 5.3505 1.5 8.25V18.75C1.5 19.3467 1.73705 19.9191 2.15901 20.3411C2.58097 20.763 3.15325 21 3.75 21H18C18.5967 21 19.1691 20.763 19.591 20.3411C20.013 19.9191 20.25 19.3467 20.25 18.75V18H16.5C15.0502 18 13.875 16.8247 13.875 15.375V13.125C13.875 11.6753 15.0502 10.5 16.5 10.5H20.25V9.75C20.25 9.15325 20.013 8.58096 19.591 8.15901C19.1691 7.73706 18.5967 7.5 18 7.5H7.5C6.98223 7.5 6.5625 7.08027 6.5625 6.5625C6.5625 6.04473 6.98223 5.625 7.5 5.625H17.25V3.75C17.25 3.33579 16.9141 3 16.5 3H6.75ZM16.5 12.375H21.75C22.1642 12.375 22.5 12.7108 22.5 13.125V15.375C22.5 15.7892 22.1642 16.125 21.75 16.125H16.5C16.0858 16.125 15.75 15.7892 15.75 15.375V13.125C15.75 12.7108 16.0858 12.375 16.5 12.375Z" fill="currentColor"></path></svg>