<svg width="40" height="40" viewBox="0 0 24 24" xmlns="http://www.w3.org/2000/svg"><g clip-path="url(#clip0_6406_57916)"><mask id="mask0_6406_57916" maskUnits="userSpaceOnUse" x="0" y="0" width="24" height="24" style="mask-type: luminance;"><path d="M24 12C24 5.37258 18.6274 0 12 0C5.37258 0 0 5.37258 0 12C0 18.6274 5.37258 24 12 24C18.6274 24 24 18.6274 24 12Z" fill="white"></path></mask><g mask="url(#mask0_6406_57916)"><path d="M24 0H0V24H24V0Z" fill="#AB9FF2"></path><path fill-rule="evenodd" clip-rule="evenodd" d="M10.444 15.2955C9.50165 16.7394 7.92257 18.5668 5.82141 18.5668C4.82813 18.5668 3.87305 18.1579 3.87305 16.3816C3.87305 11.8581 10.0492 4.85547 15.7797 4.85547C19.0397 4.85547 20.3386 7.11725 20.3386 9.68573C20.3386 12.9826 18.1992 16.7522 16.0726 16.7522C15.3976 16.7522 15.0665 16.3816 15.0665 15.7938C15.0665 15.6405 15.092 15.4744 15.143 15.2955C14.4171 16.535 13.0163 17.6851 11.7047 17.6851C10.7496 17.6851 10.2657 17.0845 10.2657 16.2411C10.2657 15.9344 10.3294 15.6149 10.444 15.2955ZM15.3803 9.59665C15.3803 10.3451 14.9387 10.7193 14.4448 10.7193C13.9433 10.7193 13.5092 10.3451 13.5092 9.59665C13.5092 8.84821 13.9433 8.47399 14.4448 8.47399C14.9387 8.47399 15.3803 8.84821 15.3803 9.59665ZM18.187 9.59667C18.187 10.3451 17.7454 10.7193 17.2514 10.7193C16.75 10.7193 16.3159 10.3451 16.3159 9.59667C16.3159 8.84823 16.75 8.47403 17.2514 8.47403C17.7454 8.47403 18.187 8.84823 18.187 9.59667Z" fill="#FFFDF8"></path></g></g><defs><clipPath id="clip0_6406_57916"><rect width="24" height="24" fill="white"></rect></clipPath></defs></svg>